<svg width="484" height="484" viewBox="0 0 484 484" fill="none" xmlns="http://www.w3.org/2000/svg">
<path d="M163.597 203.971L233.737 151.928V77.4038L154.312 16.0749C117.454 30.5159 84.5606 54.0126 58.7715 84.38L89.5497 180.341L163.597 203.971ZM311.143 10.5361C265.521 -3.51204 216.229 -3.51204 170.597 10.5361L240.861 64.8027L311.143 10.5361Z" fill="#7D7D7D" fill-opacity="0.11"/>
<path d="M172.856 213.789L185.3 311.143H298.699L311.142 213.789L241.999 162.486L172.856 213.789Z" fill="#7D7D7D" fill-opacity="0.11"/>
<path d="M483.828 230.941C481.853 182.424 465.455 135.496 436.837 96.4556L409.14 181.76L483.828 230.941ZM249.193 150.365L320.076 202.667L394.907 178.996L426.161 82.7519C400.016 52.0508 366.731 28.3317 329.449 13.8286L249.193 75.4618V150.365ZM47.3161 96.2438C18.6312 135.188 2.17556 182.126 0.162929 230.749L74.8508 181.644L47.3161 96.2438ZM171.496 315.716L158.691 216.168L84.4827 192.613L0 248.15C1.22675 287.884 11.8937 326.29 31.0425 360.178L131.827 363.847L171.496 315.716ZM399.508 192.7L325.309 216.168L312.504 315.687L352.335 363.645L453.226 359.706C472.279 325.847 482.86 287.538 484 248.333L399.508 192.7ZM334.73 465.388C379.372 446.831 417.449 415.196 444.083 374.527L354.846 378.013L334.73 465.388ZM40.2143 374.99C66.9536 415.61 105.098 447.168 149.721 465.61L129.355 378.235L40.2143 374.99ZM301.588 325.134H182.421L142.945 373.054L165.937 471.734C215.275 488.212 270.086 488.019 318.542 471.571L341.266 372.9L301.588 325.134Z" fill="#7D7D7D" fill-opacity="0.11"/>
</svg>
