<?xml version="1.0" standalone="no"?>
<!DOCTYPE svg PUBLIC "-//W3C//DTD SVG 20010904//EN"
 "http://www.w3.org/TR/2001/REC-SVG-20010904/DTD/svg10.dtd">
<svg version="1.0" xmlns="http://www.w3.org/2000/svg"
 viewBox="0 0 2600.000000 2600.000000"
 preserveAspectRatio="xMidYMid meet">
<metadata>
Created by potrace 1.15, written by Peter Selinger 2001-2017
</metadata>
<g transform="translate(0.000000,2600.000000) scale(0.100000,-0.100000)"
fill="#000000" stroke="none">
<path d="M13389 22830 c-352 -34 -640 -158 -844 -364 -135 -136 -213 -274
-267 -476 -17 -61 -22 -115 -25 -297 -8 -376 32 -660 122 -858 18 -40 23 -69
23 -140 2 -253 136 -588 355 -889 36 -50 46 -71 36 -74 -8 -3 -108 -53 -224
-111 -217 -110 -388 -212 -559 -334 l-99 -71 -81 -2 c-169 -3 -328 -98 -541
-324 -29 -30 -148 -163 -265 -295 -468 -526 -820 -894 -975 -1018 -39 -30
-188 -121 -330 -200 -340 -189 -436 -245 -460 -267 -11 -11 -60 -27 -111 -39
-175 -38 -321 -97 -442 -180 -67 -46 -64 -43 -678 -607 -263 -242 -654 -601
-869 -798 l-390 -357 -170 -88 -170 -88 -165 -17 c-319 -33 -583 -88 -708
-146 -106 -50 -212 -129 -343 -260 -121 -120 -128 -129 -148 -194 -25 -80 -27
-181 -6 -231 15 -37 162 -214 213 -257 28 -23 52 -35 116 -54 19 -6 41 -27 62
-59 59 -90 88 -118 154 -149 61 -29 72 -31 180 -31 134 1 219 22 337 85 176
94 301 214 462 443 98 139 131 179 174 206 122 81 265 160 457 255 211 105
264 127 850 364 987 400 1590 688 1980 947 l125 82 95 -24 c71 -18 124 -25
210 -26 l115 -1 622 237 c342 130 626 237 631 237 5 0 15 -15 23 -32 80 -203
178 -419 314 -698 148 -303 235 -510 235 -560 0 -11 -14 -61 -31 -112 -40
-119 -47 -214 -25 -350 9 -56 20 -143 25 -192 l9 -89 -68 -131 c-38 -72 -83
-167 -101 -211 -28 -72 -31 -87 -27 -155 7 -101 -7 -409 -22 -493 -8 -46 -9
-81 -2 -112 l9 -44 -159 -288 c-725 -1309 -1156 -2197 -1160 -2390 -1 -43 9
-61 75 -146 l22 -28 -117 -116 -117 -115 -73 7 c-113 10 -212 33 -343 77 -111
37 -128 40 -230 40 -287 0 -774 -136 -1480 -414 -357 -141 -803 -308 -821
-308 -8 0 -14 4 -14 9 0 5 -53 64 -117 132 -134 139 -182 169 -274 169 -150 0
-319 -92 -634 -345 l-170 -137 -290 -143 c-328 -162 -375 -190 -518 -311 -56
-48 -287 -225 -513 -395 -234 -175 -427 -327 -448 -352 -111 -136 -133 -325
-62 -535 59 -172 142 -279 240 -307 119 -35 219 3 524 197 212 135 293 169
857 363 633 216 827 289 1025 382 180 85 279 112 500 139 170 21 637 22 1065
2 358 -16 1906 -15 2181 1 589 36 756 133 1375 804 41 45 49 49 111 57 218 31
441 196 831 615 105 113 427 483 571 655 l28 34 60 -62 c106 -114 328 -372
666 -775 644 -767 681 -802 818 -762 64 18 129 49 187 89 33 23 38 24 44 10 9
-23 -8 -65 -107 -270 -74 -153 -98 -194 -160 -265 -237 -274 -428 -648 -616
-1204 -101 -297 -217 -718 -294 -1063 -11 -51 -35 -123 -54 -160 -46 -92 -258
-571 -312 -704 -69 -173 -238 -406 -403 -557 -158 -145 -187 -176 -215 -232
-38 -79 -59 -189 -51 -272 11 -113 31 -166 84 -217 59 -57 126 -82 302 -110
321 -51 378 -67 709 -202 323 -132 519 -187 747 -210 262 -26 443 33 508 166
24 50 27 65 23 129 -3 40 -12 87 -22 106 -25 48 -88 114 -191 199 -118 97
-180 156 -226 214 -52 66 -130 205 -179 321 l-41 98 11 92 c13 113 36 216 62
282 25 66 143 219 378 495 348 408 397 469 452 562 251 421 1014 2004 1332
2763 101 239 157 398 181 514 18 87 21 272 5 331 -9 35 -7 56 17 148 37 146
39 349 4 522 -25 129 -83 309 -134 421 -19 41 -294 539 -612 1108 l-577 1034
36 116 c45 146 106 386 108 426 0 17 -33 141 -76 277 l-76 246 29 254 c50 421
50 418 41 869 -5 233 -14 789 -21 1234 l-11 810 52 285 c36 197 57 290 69 301
9 9 117 80 241 156 647 402 1142 669 1425 770 114 40 115 41 159 338 21 146
39 312 62 581 6 73 2 70 167 114 134 35 211 48 547 95 588 82 950 146 1080
190 163 55 635 336 1245 740 229 152 405 248 585 320 93 38 99 39 270 47 202
9 356 37 495 90 107 40 198 99 315 203 123 109 172 140 292 183 58 22 128 52
155 67 102 60 279 259 304 345 24 79 -16 157 -94 182 -29 10 -46 23 -56 44
-40 83 -135 159 -266 211 -68 27 -76 28 -250 28 -196 0 -320 -19 -479 -71
-178 -58 -280 -130 -541 -385 l-160 -156 -200 -72 -200 -71 -474 -80 c-853
-144 -1662 -292 -2011 -366 -287 -62 -477 -137 -663 -261 -110 -73 -271 -221
-332 -306 -39 -54 -44 -57 -160 -103 -375 -146 -565 -187 -1205 -259 -552 -62
-850 -105 -1135 -166 -134 -28 -366 -93 -431 -121 -24 -10 -62 -11 -165 -5
-74 4 -196 5 -271 2 l-138 -6 -11 28 c-24 62 -49 227 -60 393 l-12 175 55 81
c92 135 131 274 110 394 -13 73 -56 169 -101 224 -17 22 -34 49 -36 60 -3 12
-18 84 -35 161 -87 400 -203 724 -314 879 -88 123 -257 208 -496 250 -110 19
-302 27 -411 16z"/>
<path d="M10428 7279 c-948 -92 -1663 -936 -1588 -1874 28 -356 140 -661 343
-930 267 -357 634 -587 1084 -681 402 -83 862 0 1238 224 360 214 649 584 772
987 172 565 55 1171 -313 1626 -158 194 -413 396 -620 490 -298 135 -606 188
-916 158z m497 -219 c284 -63 486 -173 613 -333 48 -61 82 -117 82 -136 0 -5
-55 -40 -122 -77 l-123 -67 -321 109 -322 108 -32 81 c-37 90 -87 181 -132
238 -36 45 -34 48 48 83 52 22 69 24 139 19 44 -3 121 -14 170 -25z m-520
-182 c46 -54 96 -144 125 -225 l22 -62 -50 -56 c-62 -68 -177 -221 -280 -373
l-76 -112 -35 7 c-20 4 -112 7 -206 6 -151 0 -211 -5 -320 -28 l-30 -6 -105
191 c-57 106 -110 195 -117 197 -23 9 -14 28 44 99 110 133 262 267 383 337
43 25 162 52 260 60 25 2 113 4 197 5 l151 2 37 -42z m1400 -508 c95 -64 201
-163 225 -209 49 -97 80 -388 62 -586 -17 -192 -28 -221 -109 -294 -63 -56
-147 -111 -156 -101 -2 3 -39 55 -82 115 -44 61 -121 152 -172 203 l-93 94 0
348 0 348 123 66 c67 36 123 66 125 66 2 0 36 -23 77 -50z m-1651 -525 c21
-28 266 -428 305 -496 l31 -56 -39 -154 c-22 -85 -55 -228 -74 -318 -20 -90
-39 -167 -44 -171 -9 -9 -285 -37 -454 -46 l-116 -7 -64 59 c-177 161 -332
380 -355 501 -7 38 41 184 158 480 l80 202 51 10 c29 5 61 12 72 15 11 2 113
4 227 3 194 -2 208 -3 222 -22z m1298 -494 c82 -87 228 -287 228 -313 0 -61
-95 -368 -146 -469 -26 -53 -46 -76 -96 -114 -117 -88 -288 -161 -481 -205
l-99 -23 -95 94 c-52 52 -128 131 -168 176 l-73 83 35 167 c40 193 108 471
116 480 9 8 668 191 693 192 14 1 44 -22 86 -68z m-2269 -317 c63 -156 159
-291 332 -465 l116 -116 9 -64 c6 -35 12 -76 15 -92 4 -24 2 -26 -13 -18 -60
32 -252 231 -330 341 -86 124 -198 357 -226 473 -6 27 -6 28 29 25 35 -3 37
-5 68 -84z m2362 -754 c-26 -42 -291 -187 -436 -238 -82 -29 -278 -76 -285
-69 -2 2 11 17 29 35 26 25 50 35 127 51 52 12 138 35 190 52 101 32 330 139
350 164 14 17 35 21 25 5z"/>
</g>
</svg>
