<?xml version="1.0" standalone="no"?>
<!DOCTYPE svg PUBLIC "-//W3C//DTD SVG 20010904//EN"
 "http://www.w3.org/TR/2001/REC-SVG-20010904/DTD/svg10.dtd">
<svg version="1.0" xmlns="http://www.w3.org/2000/svg"
 width="512.000000pt" height="512.000000pt" viewBox="0 0 512.000000 512.000000"
 preserveAspectRatio="xMidYMid meet">
<metadata>
Created by potrace 1.16, written by Peter Selinger 2001-2019
</metadata>
<g transform="translate(0.000000,512.000000) scale(0.100000,-0.100000)"
fill="#000000" stroke="none">
<path d="M2895 4279 c-138 -12 -282 -31 -296 -40 -9 -5 -5 -19 13 -51 44 -75
98 -208 127 -312 l29 -101 93 1 c52 1 149 5 216 9 l121 7 6 91 c3 51 7 163 10
250 l4 157 -116 -1 c-65 -1 -157 -5 -207 -10z"/>
<path d="M3277 4283 c-2 -4 -8 -119 -12 -254 l-7 -246 104 -7 c56 -4 154 -16
216 -27 63 -10 118 -19 122 -19 4 0 25 51 46 113 21 61 66 168 101 236 34 69
61 126 60 127 -9 9 -269 55 -357 63 -192 18 -268 22 -273 14z"/>
<path d="M2465 4213 c-188 -42 -554 -143 -574 -159 -2 -2 35 -40 83 -84 85
-82 153 -171 197 -263 27 -56 1 -55 224 -8 77 16 182 35 233 42 72 10 92 16
92 29 0 60 -88 296 -146 391 -37 61 -47 66 -109 52z"/>
<path d="M3913 4087 c-87 -176 -161 -364 -146 -376 4 -4 40 -20 80 -35 40 -15
91 -40 114 -56 l43 -28 55 38 c129 87 298 155 465 188 l89 18 -59 54 c-106 96
-263 186 -444 252 -157 58 -139 63 -197 -55z"/>
<path d="M1690 3984 c-148 -58 -412 -186 -537 -261 l-98 -58 91 -6 c168 -12
333 -73 457 -168 l68 -52 42 24 c65 38 214 102 318 138 52 18 98 36 103 40 16
14 -76 160 -152 240 -62 66 -160 150 -173 149 -2 0 -56 -21 -119 -46z"/>
<path d="M4595 3778 c-144 -19 -312 -77 -438 -149 -115 -67 -113 -64 -65 -118
47 -53 85 -128 94 -187 l6 -40 161 0 c181 0 279 -15 425 -64 48 -17 89 -30 91
-30 2 0 1 37 -3 83 -8 94 -38 227 -68 295 -20 47 -122 208 -136 215 -4 2 -34
0 -67 -5z"/>
<path d="M2988 3698 c-9 -7 -18 -25 -22 -39 -5 -25 -11 -27 -78 -33 -264 -25
-618 -113 -868 -216 l-73 -30 -45 37 -44 36 -75 -37 -75 -37 38 -33 c22 -19
37 -36 34 -39 -3 -3 -57 -33 -120 -67 -149 -81 -304 -183 -358 -237 -53 -53
-111 -142 -148 -228 -25 -58 -32 -65 -56 -65 -33 0 -35 -14 -14 -82 14 -48 71
-138 86 -138 6 0 10 16 10 36 0 29 3 35 16 30 9 -3 39 -9 67 -12 l52 -6 1 -57
c0 -90 7 -104 64 -131 27 -13 53 -21 56 -18 3 4 -3 21 -13 40 -12 23 -18 55
-18 108 0 65 4 84 32 140 60 122 169 220 392 354 424 256 877 387 1286 373
355 -13 606 -112 828 -326 l58 -56 19 25 c11 14 20 32 20 42 0 9 -28 42 -62
73 -216 196 -459 296 -798 326 -69 6 -126 13 -128 14 -1 1 6 24 17 51 l19 49
93 -3 c324 -11 615 -112 839 -291 41 -33 78 -57 82 -55 4 3 8 25 8 49 0 42 -3
47 -52 86 -203 160 -492 271 -763 294 -38 3 -94 8 -123 11 l-53 6 7 34 6 34
-64 0 c-36 0 -71 -5 -80 -12z m-65 -214 c-21 -57 -15 -54 -198 -82 -147 -23
-330 -74 -476 -131 l-98 -38 -50 33 c-27 18 -52 37 -55 42 -15 24 453 164 659
197 103 17 228 32 233 29 1 -1 -5 -23 -15 -50z m-993 -281 c27 -21 49 -40 49
-43 1 -3 -36 -24 -82 -47 -212 -109 -421 -270 -503 -389 l-39 -56 -70 7 c-38
4 -72 8 -74 10 -1 2 13 38 33 79 64 132 182 237 416 371 83 48 197 104 213
105 4 0 30 -17 57 -37z"/>
<path d="M870 3534 c-133 -100 -304 -265 -381 -367 -33 -44 -58 -81 -56 -83 2
-2 33 9 68 25 200 90 444 108 637 46 l83 -26 43 39 c60 55 179 142 271 198
l79 48 -44 37 c-107 92 -273 147 -470 156 l-126 6 -104 -79z"/>
<path d="M2582 3133 l-262 -126 37 -22 c21 -12 251 -133 512 -269 l473 -247
122 67 c66 37 148 85 181 107 78 52 225 170 225 180 0 5 -48 31 -107 58 -60
28 -266 125 -458 215 -320 149 -356 164 -405 164 -50 0 -80 -12 -318 -127z"/>
<path d="M4230 3233 c-38 -5 -50 -16 -50 -51 0 -33 -46 -148 -82 -205 -17 -26
-29 -49 -27 -50 2 -1 26 -13 53 -27 144 -72 311 -209 427 -349 l44 -53 47 70
c92 139 163 300 193 445 26 120 26 121 -57 151 -179 63 -382 89 -548 69z"/>
<path d="M736 3124 c-95 -19 -156 -39 -268 -91 l-96 -45 -32 -71 c-86 -192
-101 -397 -43 -576 l16 -51 82 83 c158 160 336 252 528 272 l63 7 12 81 c15
100 59 197 130 286 28 35 49 67 47 72 -3 4 -45 17 -94 28 -103 24 -239 26
-345 5z"/>
<path d="M1905 2805 c-165 -80 -308 -151 -317 -160 -23 -19 -23 -67 0 -88 10
-9 117 -63 238 -121 120 -57 282 -134 359 -170 l140 -67 113 11 c156 15 300
44 454 91 125 38 326 114 340 127 4 4 -52 38 -125 75 -581 298 -877 447 -888
447 -8 -1 -149 -66 -314 -145z"/>
<path d="M3950 2791 c-75 -77 -149 -138 -230 -192 l-24 -16 73 -73 c126 -126
234 -286 291 -433 l27 -67 85 64 c46 35 120 97 164 137 83 77 224 228 224 240
0 4 -29 42 -64 86 -94 116 -229 227 -366 302 -41 22 -79 40 -85 40 -5 0 -48
-40 -95 -88z"/>
<path d="M831 2580 c-152 -40 -284 -122 -411 -257 l-80 -84 19 -37 c57 -113
203 -262 354 -363 l91 -61 28 62 c79 175 235 342 400 429 l57 30 -67 42 c-88
55 -164 136 -193 204 l-24 55 -50 -1 c-27 0 -83 -9 -124 -19z"/>
<path d="M4733 2550 c-46 -80 -132 -192 -224 -292 l-79 -86 0 -88 0 -87 26 24
c40 36 195 218 259 302 l56 75 -3 103 -3 104 -32 -55z"/>
<path d="M3625 2541 c-20 -18 -213 -120 -315 -166 -58 -26 -106 -48 -107 -49
-2 -1 20 -57 47 -124 54 -129 113 -332 132 -447 6 -38 14 -75 17 -82 13 -26
385 143 564 257 81 51 81 51 18 184 -57 124 -146 250 -242 349 -86 87 -97 95
-114 78z"/>
<path d="M3010 2253 c-157 -56 -271 -87 -382 -103 l-88 -13 0 -126 c1 -133 17
-294 46 -450 l17 -93 61 7 c184 20 644 132 679 165 32 29 -162 664 -201 659
-4 -1 -63 -21 -132 -46z"/>
<path d="M4682 2191 c-39 -48 -112 -131 -162 -184 l-90 -95 0 -148 1 -149 48
51 c88 95 174 241 224 379 26 75 62 223 55 230 -2 3 -37 -35 -76 -84z"/>
<path d="M1263 2220 c-99 -49 -200 -134 -270 -225 -61 -79 -118 -176 -128
-218 -7 -26 -4 -29 88 -71 184 -86 464 -173 642 -201 l41 -6 12 119 c19 191
65 326 156 457 l42 61 -135 26 c-75 15 -183 43 -241 63 -58 19 -110 35 -116
35 -7 0 -47 -18 -91 -40z"/>
<path d="M1871 2075 c-89 -109 -151 -281 -171 -470 -7 -59 -9 -109 -6 -112 3
-3 54 -12 113 -21 80 -12 189 -16 420 -17 171 0 314 3 318 6 3 4 -3 56 -14
115 -27 147 -40 274 -43 424 l-3 125 -287 0 -287 0 -40 -50z"/>
<path d="M4205 1992 c-66 -50 -233 -157 -337 -216 l-48 -27 0 -114 c0 -63 4
-115 9 -115 14 0 226 144 314 214 154 123 138 98 135 212 l-3 99 -70 -53z"/>
<path d="M420 1905 l0 -77 68 -70 c100 -104 315 -278 344 -278 4 0 8 42 8 94
l0 94 -71 42 c-115 68 -199 130 -276 204 l-73 69 0 -78z"/>
<path d="M4182 1701 c-82 -67 -189 -143 -304 -215 l-58 -36 0 -130 c0 -71 2
-130 5 -130 33 0 315 176 438 273 15 12 17 33 17 161 0 80 -3 146 -7 145 -5 0
-45 -31 -91 -68z"/>
<path d="M437 1698 c11 -58 53 -161 93 -230 62 -103 158 -200 273 -273 l27
-17 0 118 -1 119 -98 68 c-54 37 -144 108 -200 158 -97 86 -100 88 -94 57z"/>
<path d="M3560 1633 c-68 -31 -286 -106 -358 -123 -30 -7 -56 -18 -58 -24 -3
-7 -3 -69 -2 -138 l3 -125 125 42 c69 23 180 66 248 96 l122 53 0 123 c0 92
-3 123 -12 122 -7 0 -38 -12 -68 -26z"/>
<path d="M990 1490 l0 -107 82 -38 c127 -58 339 -135 372 -135 3 0 6 54 6 120
l0 119 -42 11 c-127 32 -233 65 -320 99 l-98 39 0 -108z"/>
<path d="M2801 1414 c-41 -7 -147 -20 -235 -29 -89 -9 -167 -18 -173 -20 -10
-3 -13 -39 -13 -131 l0 -126 98 6 c119 8 399 45 430 57 21 8 22 13 22 134 l0
125 -27 -1 c-16 -1 -61 -7 -102 -15z"/>
<path d="M1630 1287 l0 -125 28 -6 c69 -15 247 -36 347 -41 61 -3 122 -8 138
-10 l27 -4 0 128 0 129 -31 6 c-17 3 -66 6 -108 6 -72 0 -315 23 -373 36 l-28
6 0 -125z"/>
<path d="M3515 1305 c-66 -29 -177 -72 -247 -95 l-128 -42 0 -109 c0 -71 4
-109 11 -109 22 0 258 70 372 110 l117 42 0 129 c0 71 -1 128 -2 128 -2 -1
-57 -25 -123 -54z"/>
<path d="M990 1201 l0 -118 88 -41 c92 -42 271 -105 335 -117 l37 -7 0 114 0
114 -92 28 c-90 27 -195 68 -310 120 l-58 26 0 -119z"/>
<path d="M2835 1110 c-84 -17 -264 -41 -355 -48 l-95 -7 -3 -107 -3 -108 44 0
c49 0 341 35 435 52 l62 11 0 109 c0 122 5 116 -85 98z"/>
<path d="M1630 997 c0 -132 -10 -119 110 -137 72 -10 330 -30 398 -30 l32 0 0
113 0 114 -128 6 c-111 6 -247 22 -374 43 l-38 7 0 -116z"/>
</g>
</svg>
